<?xml version="1.0" encoding="UTF-8" standalone="no"?>
<svg width="150px" height="123px" viewBox="0 0 150 123" version="1.1" xmlns="http://www.w3.org/2000/svg" xmlns:xlink="http://www.w3.org/1999/xlink" xmlns:sketch="http://www.bohemiancoding.com/sketch/ns">
    <!-- Generator: Sketch 3.2.2 (9983) - http://www.bohemiancoding.com/sketch -->
    <title>devices</title>
    <desc>Created with Sketch.</desc>
    <defs></defs>
    <g id="Page-1" stroke="none" stroke-width="1" fill="none" fill-rule="evenodd" sketch:type="MSPage">
        <g id="devices" sketch:type="MSLayerGroup" transform="translate(1.000000, 1.000000)" stroke="#3480FF">
            <g id="Welcome" sketch:type="MSShapeGroup">
                <g id="Icons2">
                    <g id="Devices">
                        <g id="Imac" transform="translate(20.000000, 0.000000)">
                            <rect id="Rectangle-49" fill="#F0F6FB" x="0" y="0" width="128" height="90" rx="5"></rect>
                            <rect id="Rectangle-50" fill="#FFFFFF" x="5" y="5" width="118" height="68"></rect>
                            <path d="M127.5,77.5 L1.5,77.5" id="Line"></path>
                            <path d="M64.9349337,107.516909 C57.533047,107.520646 36.9872786,107.53125 42.1875,107.53125 C52.3125,107.53125 51.609375,90.15625 51.609375,90.15625 L51.609375,89.5 L64.9349337,89.5 L78.2604924,89.5 L78.2604924,90.15625 C78.2604924,90.15625 77.5573674,107.53125 87.6823674,107.53125 C92.8825888,107.53125 72.3368204,107.520646 64.9349337,107.516909 L64.9349337,107.516909 Z" id="Path-61" fill="#F0F6FB"></path>
                        </g>
                        <g id="iPad" transform="translate(0.000000, 34.000000)">
                            <rect id="Rectangle-47" fill="#F0F6FB" x="0" y="0" width="64" height="87" rx="5"></rect>
                            <rect id="Rectangle-48" fill="#FFFFFF" x="7" y="8" width="50" height="67"></rect>
                            <path d="M27.5,4.5 L35.5,4.5" id="Line"></path>
                            <circle id="Oval-26" fill="#FFFFFF" cx="32.5" cy="80.5" r="3.5"></circle>
                        </g>
                        <g id="iPhone" transform="translate(106.000000, 58.000000)">
                            <rect id="Rectangle-51" fill="#F0F6FB" x="0" y="0" width="32" height="63" rx="5"></rect>
                            <rect id="Rectangle-52" fill="#FFFFFF" x="4" y="8" width="24" height="45"></rect>
                            <circle id="Oval-27" fill="#FFFFFF" cx="16.5" cy="57.5" r="2.5"></circle>
                            <path d="M12.5,4.5 L19.5710678,4.5" id="Line"></path>
                        </g>
                    </g>
                </g>
            </g>
        </g>
    </g>
</svg>