<?xml version="1.0" encoding="UTF-8" standalone="no"?>
<svg width="1400px" height="363px" viewBox="0 0 1400 363" version="1.1" xmlns="http://www.w3.org/2000/svg" xmlns:xlink="http://www.w3.org/1999/xlink" xmlns:sketch="http://www.bohemiancoding.com/sketch/ns">
    <!-- Generator: Sketch 3.3.2 (12043) - http://www.bohemiancoding.com/sketch -->
    <title>Logo</title>
    <desc>Created with Sketch.</desc>
    <defs>
        <linearGradient x1="97.6546114%" y1="4.85095148%" x2="2.43975393%" y2="96.9376561%" id="linearGradient-1">
            <stop stop-color="#019BFF" offset="0%"></stop>
            <stop stop-color="#4043FF" offset="100%"></stop>
        </linearGradient>
    </defs>
    <g id="Welcome" stroke="none" stroke-width="1" fill="none" fill-rule="evenodd" sketch:type="MSPage">
        <g id="Logo" sketch:type="MSArtboardGroup">
            <g id="Slide1" sketch:type="MSLayerGroup" transform="translate(4.000000, 3.000000)">
                <g id="Logo" transform="translate(0.000000, 2.105000)" sketch:type="MSShapeGroup">
                    <g id="Logo-2">
                        <path d="M143.886459,0.265939826 L262.592219,118.612405 L143.909227,236.97833 L143.886459,0.265939826 L0,146.954456 L0,354.993992 L262.969507,354.993992 L381.297979,237.001032 L381.297979,0.265939826 L143.886459,0.265939826 L143.886459,0.265939826 Z" id="Fill-1" fill="url(#linearGradient-1)"></path>
                        <path d="M508.862119,119.990018 L528.311949,119.990018 L528.311949,97.1808129 L508.862119,97.1808129 L508.862119,119.990018 Z M508.862119,262.926188 L528.311949,262.926188 L528.311949,145.393757 L508.862119,145.393757 L508.862119,262.926188 Z M642.740698,262.926188 L662.158003,262.926188 L662.158003,194.462898 C662.158003,154.72111 637.058615,141.47601 615.66055,141.47601 C602.865294,141.47601 589.32522,146.136443 578.513977,160.130716 L578.026105,160.130716 L578.026105,145.393757 L558.576275,145.393757 L558.576275,262.926188 L578.026105,262.926188 L578.026105,200.352493 C578.026105,173.126092 591.533654,158.895068 612.704046,158.895068 C631.148859,158.895068 642.740698,171.893688 642.740698,195.692059 L642.740698,262.926188 L642.740698,262.926188 Z M727.682464,264.398586 C734.567964,264.398586 740.737918,263.652657 745.902856,261.937021 L745.902856,245.990361 C741.450211,247.219522 736.548724,247.949235 731.611459,247.949235 C719.079654,247.949235 713.169898,242.802326 713.169898,223.667632 L713.169898,161.583655 L744.670166,161.583655 L744.670166,145.393757 L713.169898,145.393757 L713.169898,107.850838 L693.720068,107.850838 L693.720068,145.393757 L678.231759,145.393757 L678.231759,161.583655 L693.720068,161.583655 L693.720068,222.937919 C693.720068,245.263891 699.141952,264.398586 727.682464,264.398586 L727.682464,264.398586 Z M851.949964,193.489948 L775.936256,193.489948 C777.66007,175.568198 791.684764,158.392377 814.058573,158.392377 C835.492416,158.392377 850.001729,175.081723 851.949964,193.489948 L851.949964,193.489948 Z M871.887666,209.679845 C872.147865,208.450685 872.375538,204.772931 872.375538,202.57082 C872.375538,176.800602 856.887229,141.719247 814.058573,141.47601 C778.404888,141.47601 755.513934,170.178052 755.513934,202.57082 C755.513934,239.127816 780.613322,267.100146 818.016841,267.100146 C845.815787,267.100146 862.312365,250.4108 870.170357,235.696544 L847.793295,235.696544 C840.162977,244.7612 831.527643,249.927568 817.502949,249.927568 C795.356813,249.927568 775.676057,231.032868 775.676057,209.679845 L871.887666,209.679845 L871.887666,209.679845 Z M992.258696,204.772931 C992.258696,231.276105 972.356771,249.927568 949.462565,249.927568 C921.149727,249.927568 906.406236,226.615672 906.406236,204.049705 C906.406236,181.461035 921.149727,158.392377 949.947184,158.392377 C973.553684,158.392377 992.258696,176.800602 992.258696,204.772931 L992.258696,204.772931 Z M1009.98796,259.251678 L1009.98796,145.393757 L990.538134,145.393757 L990.538134,162.326341 L990.050262,162.326341 C982.680142,153.242225 969.136816,141.47601 946.736987,141.47601 C912.312739,141.47601 886.471786,167.71973 886.471786,204.049705 C886.471786,242.319094 914.752099,267.100146 946.993933,267.100146 C966.931635,267.100146 981.447452,257.273345 990.050262,246.739533 L990.538134,246.739533 L990.538134,261.693784 C990.538134,291.874711 976.282514,309.050532 949.947184,309.050532 C925.820288,309.050532 915.009045,296.791354 910.819851,281.087932 L891.142347,281.087932 C896.05034,307.834343 916.469409,325.983115 949.202366,325.983115 C990.31046,325.983115 1009.98796,301.698268 1009.98796,259.251678 L1009.98796,259.251678 Z M1087.55961,158.895068 C1092.72455,158.895068 1095.90547,159.621538 1098.86198,160.130716 L1098.86198,142.20248 C1096.16567,141.719247 1093.20917,141.47601 1089.01997,141.47601 C1073.53166,141.47601 1061.7154,152.275761 1057.78316,160.130716 L1057.29854,160.130716 L1057.29854,145.393757 L1037.84545,145.393757 L1037.84545,262.926188 L1057.29854,262.926188 L1057.29854,200.598973 C1057.29854,170.907765 1070.57841,158.895068 1087.55961,158.895068 L1087.55961,158.895068 Z M1209.84635,204.049705 C1209.84635,229.800464 1191.89266,249.421634 1167.05022,249.421634 C1144.41621,249.421634 1124.21831,230.530176 1124.21831,204.049705 C1124.21831,178.029763 1141.94758,158.895068 1167.05022,158.895068 C1192.89768,158.895068 1209.84635,179.258924 1209.84635,204.049705 L1209.84635,204.049705 Z M1230.04425,204.049705 C1230.04425,168.462416 1203.70892,141.47601 1167.05022,141.47601 C1131.62746,141.47601 1104.05619,167.71973 1104.05619,204.049705 C1104.05619,239.611049 1131.36726,267.100146 1167.05022,267.100146 C1203.44872,267.100146 1230.04425,238.641341 1230.04425,204.049705 L1230.04425,204.049705 Z M1267.78603,173.609324 C1267.78603,165.0279 1274.40808,157.909145 1286.45526,157.909145 C1295.80614,157.909145 1303.43646,164.528452 1305.41722,173.609324 L1325.09472,173.609324 C1321.16573,156.190266 1309.60641,141.47601 1285.47952,141.47601 C1261.35587,141.47601 1248.56387,156.190266 1248.56387,173.36933 C1248.56387,191.028383 1258.91977,202.071372 1281.06916,209.190127 C1302.95509,216.302396 1307.40123,222.937919 1307.40123,232.991741 C1307.40123,242.802326 1300.74341,250.4108 1287.68795,250.4108 C1273.17539,250.4108 1266.03294,241.829376 1263.82125,231.519343 L1244.14375,231.519343 C1247.84507,251.883199 1260.868,267.100146 1286.97566,267.100146 C1311.06678,267.100146 1326.81529,253.115603 1326.81529,231.519343 C1326.81529,215.81592 1318.6971,202.311366 1292.62522,193.976423 C1271.22715,187.110635 1267.78603,180.977803 1267.78603,173.609324 L1267.78603,173.609324 Z M1359.1612,243.590416 L1366.63865,243.590416 L1366.63865,241.29101 L1349.02322,241.29101 L1349.02322,243.590416 L1356.48116,243.590416 L1356.48116,262.926188 L1359.1612,262.926188 L1359.1612,243.590416 L1359.1612,243.590416 Z M1391.40628,262.926188 L1391.40628,241.29101 L1387.39272,241.29101 L1381.81797,256.757681 C1381.12194,258.703582 1380.83573,259.644101 1380.83573,259.644101 L1380.76742,259.644101 C1380.76742,259.644101 1380.58854,258.703582 1379.84372,256.757681 L1374.29824,241.29101 L1370.23915,241.29101 L1370.23915,262.926188 L1372.95822,262.926188 L1372.95822,244.375263 C1372.95822,244.375263 1373.41682,245.513615 1374.16489,247.702754 L1379.45017,262.926188 L1381.97409,262.926188 L1387.39272,247.702754 C1388.31318,245.513615 1388.57988,244.375263 1388.57988,244.375263 L1388.77503,244.375263 L1388.77503,262.926188 L1391.40628,262.926188 L1391.40628,262.926188 Z" id="Fill-10" fill="#000000"></path>
                    </g>
                </g>
            </g>
        </g>
    </g>
</svg>