<?xml version="1.0" encoding="UTF-8" standalone="no"?>
<svg width="297px" height="213px" viewBox="0 0 297 213" version="1.1" xmlns="http://www.w3.org/2000/svg" xmlns:xlink="http://www.w3.org/1999/xlink" xmlns:sketch="http://www.bohemiancoding.com/sketch/ns">
    <!-- Generator: Sketch 3.2.2 (9983) - http://www.bohemiancoding.com/sketch -->
    <title>backend</title>
    <desc>Created with Sketch.</desc>
    <defs></defs>
    <g id="Page-1" stroke="none" stroke-width="1" fill="none" fill-rule="evenodd" sketch:type="MSPage">
        <g id="backend" sketch:type="MSLayerGroup" transform="translate(1.000000, 1.000000)">
            <g id="Welcome" sketch:type="MSShapeGroup">
                <g id="Slices">
                    <g id="02">
                        <rect id="Rectangle-5" stroke="#3480FF" fill="#F0F6FB" x="0" y="0" width="295" height="82.159292" rx="5"></rect>
                        <rect id="Rectangle-4" stroke="#3480FF" fill="#FFFFFF" x="0" y="32" width="295" height="179"></rect>
                        <rect id="Rectangle-6" stroke="#3480FF" fill="#F0F6FB" x="0" y="32" width="37" height="179"></rect>
                        <circle id="Oval-708" stroke="#3480FF" fill="#FFFFFF" cx="20.5" cy="16.5" r="4.5"></circle>
                        <circle id="Oval-708-Copy" stroke="#3480FF" fill="#FFFFFF" cx="35.5" cy="16.5" r="4.5"></circle>
                        <circle id="Oval-708-Copy-2" stroke="#3480FF" fill="#FFFFFF" cx="50.5" cy="16.5" r="4.5"></circle>
                        <g id="Group" transform="translate(60.000000, 59.000000)">
                            <path d="M0.5,0.5 L187.499878,0.53125" id="Line" stroke="#3480FF"></path>
                            <path d="M0.53125,18.4911504 L84.5243056,18.4911504" id="Line-Copy-7" stroke="#3480FF"></path>
                            <path d="M0.49993896,45.484375 L187.515564,45.499939" id="Line-Copy-9" stroke="#3480FF"></path>
                            <path d="M0.53118896,64.515564 L187.499878,64.5311279" id="Line-Copy-43" stroke="#3480FF"></path>
                            <path d="M0.53125,83.4911504 L84.5243056,83.4911504" id="Line-Copy-40" stroke="#3480FF"></path>
                            <path d="M0.5,110.5 L187.515564,110.514954" id="Line" stroke="#4C8FFF"></path>
                            <path d="M0.53125,129.49115 L84.5243056,129.49115" id="Line-Copy-44" stroke="#3480FF"></path>
                        </g>
                        <path d="M17.5,59.5 L19.5,59.5" id="Line" stroke="#3480FF"></path>
                        <path d="M17.5,77.5 L19.5,77.5" id="Line-Copy-41" stroke="#3480FF"></path>
                        <path d="M17.5,104.5 L19.5,104.5" id="Line-Copy-42" stroke="#3480FF"></path>
                        <path d="M17.5,123.5 L19.5,123.5" id="Line-Copy-45" stroke="#3480FF"></path>
                        <path d="M17.5,142.5 L19.5,142.5" id="Line-Copy-46" stroke="#3480FF"></path>
                        <path d="M17.5,169.5 L19.5,169.5" id="Line-Copy-47" stroke="#3480FF"></path>
                        <path d="M17.5,188.5 L19.5,188.5" id="Line-Copy-48" stroke="#3480FF"></path>
                    </g>
                </g>
            </g>
        </g>
    </g>
</svg>