<?xml version="1.0" encoding="UTF-8" standalone="no"?>
<svg width="295px" height="211px" viewBox="0 0 295 211" version="1.1" xmlns="http://www.w3.org/2000/svg" xmlns:xlink="http://www.w3.org/1999/xlink" xmlns:sketch="http://www.bohemiancoding.com/sketch/ns">
    <!-- Generator: Sketch 3.3.2 (12043) - http://www.bohemiancoding.com/sketch -->
    <title>Slices</title>
    <desc>Created with Sketch.</desc>
    <defs></defs>
    <g id="Welcome" stroke="none" stroke-width="1" fill="none" fill-rule="evenodd" sketch:type="MSPage">
        <g id="Slices" sketch:type="MSArtboardGroup">
            <g id="03" sketch:type="MSLayerGroup">
                <path d="M295,53 L295,211 L0,211 L0,53 L0,53 C7.7319865,53 14,46.7319865 14,39 C14,31.2680135 7.7319865,25 0,25 L0,0 L295,0 L295,25 C287.268014,25 281,31.2680135 281,39 C281,46.7319865 287.268014,53 295,53 Z" id="Rectangle-218" stroke="#3480FF" fill="#FFFFFF" sketch:type="MSShapeGroup"></path>
                <rect id="Rectangle-209" stroke="#3480FF" fill="#F0F6FB" sketch:type="MSShapeGroup" x="115" y="65" width="65" height="65"></rect>
                <g id="Bottom" transform="translate(147.500000, 148.500000) rotate(-180.000000) translate(-147.500000, -148.500000) translate(113.000000, 129.000000)" stroke-linecap="square" sketch:type="MSShapeGroup">
                    <g id="Group" transform="translate(0.000000, 1.000000)">
                        <path d="M58.5,32.75 L58.484375,7.484375" id="Line-Copy-38" stroke="#D6E5FF"></path>
                        <path d="M58.5,36.5 L58.5,33.5" id="Line-Copy-38" stroke="#3480FF"></path>
                        <path d="M54.5,32.75 L54.5,4.5" id="Line-Copy-63" stroke="#D6E5FF"></path>
                        <path d="M54.5,36.5 L54.5,33.5" id="Line-Copy-62" stroke="#3480FF"></path>
                        <path d="M50.5,32.75 L50.5,0.5" id="Line-Copy-65" stroke="#D6E5FF"></path>
                        <path d="M50.5,36.5 L50.5,33.5" id="Line-Copy-64" stroke="#3480FF"></path>
                        <path d="M46.5,32.75 L46.5,0.5" id="Line-Copy-67" stroke="#D6E5FF"></path>
                        <path d="M46.5,36.5 L46.5,33.5" id="Line-Copy-66" stroke="#3480FF"></path>
                        <path d="M42.5,32.75 L42.5,0.5" id="Line-Copy-69" stroke="#D6E5FF"></path>
                        <path d="M42.5,36.5 L42.5,33.5" id="Line-Copy-68" stroke="#3480FF"></path>
                        <path d="M38.5,32.75 L38.5,0.5" id="Line-Copy-71" stroke="#D6E5FF"></path>
                        <path d="M38.5,36.5 L38.5,33.5" id="Line-Copy-70" stroke="#3480FF"></path>
                        <path d="M34.5,32.75 L34.5,0.5" id="Line-Copy-73" stroke="#D6E5FF"></path>
                        <path d="M34.5,36.5 L34.5,33.5" id="Line-Copy-72" stroke="#3480FF"></path>
                        <path d="M30.5,32.75 L30.5,0.5" id="Line-Copy-75" stroke="#D6E5FF"></path>
                        <path d="M30.5,36.5 L30.5,33.5" id="Line-Copy-74" stroke="#3480FF"></path>
                        <path d="M26.5,32.75 L26.5,0.5" id="Line-Copy-77" stroke="#D6E5FF"></path>
                        <path d="M26.5,36.5 L26.5,33.5" id="Line-Copy-76" stroke="#3480FF"></path>
                        <path d="M22.5,32.75 L22.5,0.5" id="Line-Copy-79" stroke="#D6E5FF"></path>
                        <path d="M22.5,36.5 L22.5,33.5" id="Line-Copy-78" stroke="#3480FF"></path>
                        <path d="M18.5,32.75 L18.5,0.5" id="Line-Copy-81" stroke="#D6E5FF"></path>
                        <path d="M18.5,36.5 L18.5,33.5" id="Line-Copy-80" stroke="#3480FF"></path>
                        <path d="M14.5,32.75 L14.5,3.5" id="Line-Copy-83" stroke="#D6E5FF"></path>
                        <path d="M14.5,36.5 L14.5,33.5" id="Line-Copy-82" stroke="#3480FF"></path>
                        <path d="M10.5,32.75 L10.484375,7.484375" id="Line-Copy-85" stroke="#D6E5FF"></path>
                        <path d="M10.5,36.5 L10.5,33.5" id="Line-Copy-84" stroke="#3480FF"></path>
                        <g transform="translate(53.000000, 0.000000)" stroke="#D6E5FF">
                            <path d="M13.5,7.5 L5.5,7.5" id="Line"></path>
                            <path d="M13.5,0.5 L13.5,6.58276272" id="Line"></path>
                            <path d="M9.5,3.5 L1.5,3.5" id="Line-Copy-87"></path>
                            <path d="M9.5,0.5 L9.5,2.58276272" id="Line-Copy-86"></path>
                        </g>
                        <g id="Group-Copy-6" transform="translate(8.500000, 5.000000) scale(-1, 1) translate(-8.500000, -5.000000) translate(1.000000, 0.000000)" stroke="#D6E5FF">
                            <path d="M13.5,7.5 L5.5,7.5" id="Line"></path>
                            <path d="M13.5,0.5 L13.5,6.58276272" id="Line"></path>
                            <path d="M9.5,3.5 L1.5,3.5" id="Line-Copy-87"></path>
                            <path d="M9.5,0.5 L9.5,2.58276272" id="Line-Copy-86"></path>
                        </g>
                    </g>
                </g>
                <g id="Top" transform="translate(147.500000, 46.500000) scale(1, -1) rotate(-180.000000) translate(-147.500000, -46.500000) translate(113.000000, 27.000000)" stroke-linecap="square" sketch:type="MSShapeGroup">
                    <g id="Group" transform="translate(0.000000, 1.000000)">
                        <path d="M58.5,32.75 L58.484375,7.484375" id="Line-Copy-38" stroke="#D6E5FF"></path>
                        <path d="M58.5,36.5 L58.5,33.5" id="Line-Copy-38" stroke="#3480FF"></path>
                        <path d="M54.5,32.75 L54.5,4.5" id="Line-Copy-63" stroke="#D6E5FF"></path>
                        <path d="M54.5,36.5 L54.5,33.5" id="Line-Copy-62" stroke="#3480FF"></path>
                        <path d="M50.5,32.75 L50.5,0.5" id="Line-Copy-65" stroke="#D6E5FF"></path>
                        <path d="M50.5,36.5 L50.5,33.5" id="Line-Copy-64" stroke="#3480FF"></path>
                        <path d="M46.5,32.75 L46.5,0.5" id="Line-Copy-67" stroke="#D6E5FF"></path>
                        <path d="M46.5,36.5 L46.5,33.5" id="Line-Copy-66" stroke="#3480FF"></path>
                        <path d="M42.5,32.75 L42.5,0.5" id="Line-Copy-69" stroke="#D6E5FF"></path>
                        <path d="M42.5,36.5 L42.5,33.5" id="Line-Copy-68" stroke="#3480FF"></path>
                        <path d="M38.5,32.75 L38.5,0.5" id="Line-Copy-71" stroke="#D6E5FF"></path>
                        <path d="M38.5,36.5 L38.5,33.5" id="Line-Copy-70" stroke="#3480FF"></path>
                        <path d="M34.5,32.75 L34.5,0.5" id="Line-Copy-73" stroke="#D6E5FF"></path>
                        <path d="M34.5,36.5 L34.5,33.5" id="Line-Copy-72" stroke="#3480FF"></path>
                        <path d="M30.5,32.75 L30.5,0.5" id="Line-Copy-75" stroke="#D6E5FF"></path>
                        <path d="M30.5,36.5 L30.5,33.5" id="Line-Copy-74" stroke="#3480FF"></path>
                        <path d="M26.5,32.75 L26.5,0.5" id="Line-Copy-77" stroke="#D6E5FF"></path>
                        <path d="M26.5,36.5 L26.5,33.5" id="Line-Copy-76" stroke="#3480FF"></path>
                        <path d="M22.5,32.75 L22.5,0.5" id="Line-Copy-79" stroke="#D6E5FF"></path>
                        <path d="M22.5,36.5 L22.5,33.5" id="Line-Copy-78" stroke="#3480FF"></path>
                        <path d="M18.5,32.75 L18.5,0.5" id="Line-Copy-81" stroke="#D6E5FF"></path>
                        <path d="M18.5,36.5 L18.5,33.5" id="Line-Copy-80" stroke="#3480FF"></path>
                        <path d="M14.5,32.75 L14.5,3.5" id="Line-Copy-83" stroke="#D6E5FF"></path>
                        <path d="M14.5,36.5 L14.5,33.5" id="Line-Copy-82" stroke="#3480FF"></path>
                        <path d="M10.5,32.75 L10.484375,7.484375" id="Line-Copy-85" stroke="#D6E5FF"></path>
                        <path d="M10.5,36.5 L10.5,33.5" id="Line-Copy-84" stroke="#3480FF"></path>
                        <g transform="translate(53.000000, 0.000000)" stroke="#D6E5FF">
                            <path d="M13.5,7.5 L5.5,7.5" id="Line"></path>
                            <path d="M13.5,0.5 L13.5,6.58276272" id="Line"></path>
                            <path d="M9.5,3.5 L1.5,3.5" id="Line-Copy-87"></path>
                            <path d="M9.5,0.5 L9.5,2.58276272" id="Line-Copy-86"></path>
                        </g>
                        <g id="Group-Copy-6" transform="translate(8.500000, 5.000000) scale(-1, 1) translate(-8.500000, -5.000000) translate(1.000000, 0.000000)" stroke="#D6E5FF">
                            <path d="M13.5,7.5 L5.5,7.5" id="Line"></path>
                            <path d="M13.5,0.5 L13.5,6.58276272" id="Line"></path>
                            <path d="M9.5,3.5 L1.5,3.5" id="Line-Copy-87"></path>
                            <path d="M9.5,0.5 L9.5,2.58276272" id="Line-Copy-86"></path>
                        </g>
                    </g>
                </g>
                <g id="Right" transform="translate(198.500000, 97.500000) scale(1, -1) rotate(-270.000000) translate(-198.500000, -97.500000) translate(164.000000, 78.000000)" stroke-linecap="square" sketch:type="MSShapeGroup">
                    <g id="Group" transform="translate(0.000000, 1.000000)">
                        <path d="M58.5,32.75 L58.484375,7.484375" id="Line-Copy-38" stroke="#D6E5FF"></path>
                        <path d="M58.5,36.5 L58.5,33.5" id="Line-Copy-38" stroke="#3480FF"></path>
                        <path d="M54.5,32.75 L54.5,4.5" id="Line-Copy-63" stroke="#D6E5FF"></path>
                        <path d="M54.5,36.5 L54.5,33.5" id="Line-Copy-62" stroke="#3480FF"></path>
                        <path d="M50.5,32.75 L50.5,0.5" id="Line-Copy-65" stroke="#D6E5FF"></path>
                        <path d="M50.5,36.5 L50.5,33.5" id="Line-Copy-64" stroke="#3480FF"></path>
                        <path d="M46.5,32.75 L46.5,0.5" id="Line-Copy-67" stroke="#D6E5FF"></path>
                        <path d="M46.5,36.5 L46.5,33.5" id="Line-Copy-66" stroke="#3480FF"></path>
                        <path d="M42.5,32.75 L42.5,0.5" id="Line-Copy-69" stroke="#D6E5FF"></path>
                        <path d="M42.5,36.5 L42.5,33.5" id="Line-Copy-68" stroke="#3480FF"></path>
                        <path d="M38.5,32.75 L38.5,0.5" id="Line-Copy-71" stroke="#D6E5FF"></path>
                        <path d="M38.5,36.5 L38.5,33.5" id="Line-Copy-70" stroke="#3480FF"></path>
                        <path d="M34.5,32.75 L34.5,0.5" id="Line-Copy-73" stroke="#D6E5FF"></path>
                        <path d="M34.5,36.5 L34.5,33.5" id="Line-Copy-72" stroke="#3480FF"></path>
                        <path d="M30.5,32.75 L30.5,0.5" id="Line-Copy-75" stroke="#D6E5FF"></path>
                        <path d="M30.5,36.5 L30.5,33.5" id="Line-Copy-74" stroke="#3480FF"></path>
                        <path d="M26.5,32.75 L26.5,0.5" id="Line-Copy-77" stroke="#D6E5FF"></path>
                        <path d="M26.5,36.5 L26.5,33.5" id="Line-Copy-76" stroke="#3480FF"></path>
                        <path d="M22.5,32.75 L22.5,0.5" id="Line-Copy-79" stroke="#D6E5FF"></path>
                        <path d="M22.5,36.5 L22.5,33.5" id="Line-Copy-78" stroke="#3480FF"></path>
                        <path d="M18.5,32.75 L18.5,0.5" id="Line-Copy-81" stroke="#D6E5FF"></path>
                        <path d="M18.5,36.5 L18.5,33.5" id="Line-Copy-80" stroke="#3480FF"></path>
                        <path d="M14.5,32.75 L14.5,3.5" id="Line-Copy-83" stroke="#D6E5FF"></path>
                        <path d="M14.5,36.5 L14.5,33.5" id="Line-Copy-82" stroke="#3480FF"></path>
                        <path d="M10.5,32.75 L10.484375,7.484375" id="Line-Copy-85" stroke="#D6E5FF"></path>
                        <path d="M10.5,36.5 L10.5,33.5" id="Line-Copy-84" stroke="#3480FF"></path>
                        <g transform="translate(53.000000, 0.000000)" stroke="#D6E5FF">
                            <path d="M13.5,7.5 L5.5,7.5" id="Line"></path>
                            <path d="M13.5,0.5 L13.5,6.58276272" id="Line"></path>
                            <path d="M9.5,3.5 L1.5,3.5" id="Line-Copy-87"></path>
                            <path d="M9.5,0.5 L9.5,2.58276272" id="Line-Copy-86"></path>
                        </g>
                        <g id="Group-Copy-6" transform="translate(8.500000, 5.000000) scale(-1, 1) translate(-8.500000, -5.000000) translate(1.000000, 0.000000)" stroke="#D6E5FF">
                            <path d="M13.5,7.5 L5.5,7.5" id="Line"></path>
                            <path d="M13.5,0.5 L13.5,6.58276272" id="Line"></path>
                            <path d="M9.5,3.5 L1.5,3.5" id="Line-Copy-87"></path>
                            <path d="M9.5,0.5 L9.5,2.58276272" id="Line-Copy-86"></path>
                        </g>
                    </g>
                </g>
                <g id="Left" transform="translate(96.500000, 97.500000) scale(-1, -1) rotate(-270.000000) translate(-96.500000, -97.500000) translate(62.000000, 78.000000)" stroke-linecap="square" sketch:type="MSShapeGroup">
                    <g id="Group" transform="translate(0.000000, 1.000000)">
                        <path d="M58.5,32.75 L58.484375,7.484375" id="Line-Copy-38" stroke="#D6E5FF"></path>
                        <path d="M58.5,36.5 L58.5,33.5" id="Line-Copy-38" stroke="#3480FF"></path>
                        <path d="M54.5,32.75 L54.5,4.5" id="Line-Copy-63" stroke="#D6E5FF"></path>
                        <path d="M54.5,36.5 L54.5,33.5" id="Line-Copy-62" stroke="#3480FF"></path>
                        <path d="M50.5,32.75 L50.5,0.5" id="Line-Copy-65" stroke="#D6E5FF"></path>
                        <path d="M50.5,36.5 L50.5,33.5" id="Line-Copy-64" stroke="#3480FF"></path>
                        <path d="M46.5,32.75 L46.5,0.5" id="Line-Copy-67" stroke="#D6E5FF"></path>
                        <path d="M46.5,36.5 L46.5,33.5" id="Line-Copy-66" stroke="#3480FF"></path>
                        <path d="M42.5,32.75 L42.5,0.5" id="Line-Copy-69" stroke="#D6E5FF"></path>
                        <path d="M42.5,36.5 L42.5,33.5" id="Line-Copy-68" stroke="#3480FF"></path>
                        <path d="M38.5,32.75 L38.5,0.5" id="Line-Copy-71" stroke="#D6E5FF"></path>
                        <path d="M38.5,36.5 L38.5,33.5" id="Line-Copy-70" stroke="#3480FF"></path>
                        <path d="M34.5,32.75 L34.5,0.5" id="Line-Copy-73" stroke="#D6E5FF"></path>
                        <path d="M34.5,36.5 L34.5,33.5" id="Line-Copy-72" stroke="#3480FF"></path>
                        <path d="M30.5,32.75 L30.5,0.5" id="Line-Copy-75" stroke="#D6E5FF"></path>
                        <path d="M30.5,36.5 L30.5,33.5" id="Line-Copy-74" stroke="#3480FF"></path>
                        <path d="M26.5,32.75 L26.5,0.5" id="Line-Copy-77" stroke="#D6E5FF"></path>
                        <path d="M26.5,36.5 L26.5,33.5" id="Line-Copy-76" stroke="#3480FF"></path>
                        <path d="M22.5,32.75 L22.5,0.5" id="Line-Copy-79" stroke="#D6E5FF"></path>
                        <path d="M22.5,36.5 L22.5,33.5" id="Line-Copy-78" stroke="#3480FF"></path>
                        <path d="M18.5,32.75 L18.5,0.5" id="Line-Copy-81" stroke="#D6E5FF"></path>
                        <path d="M18.5,36.5 L18.5,33.5" id="Line-Copy-80" stroke="#3480FF"></path>
                        <path d="M14.5,32.75 L14.5,3.5" id="Line-Copy-83" stroke="#D6E5FF"></path>
                        <path d="M14.5,36.5 L14.5,33.5" id="Line-Copy-82" stroke="#3480FF"></path>
                        <path d="M10.5,32.75 L10.484375,7.484375" id="Line-Copy-85" stroke="#D6E5FF"></path>
                        <path d="M10.5,36.5 L10.5,33.5" id="Line-Copy-84" stroke="#3480FF"></path>
                        <g transform="translate(53.000000, 0.000000)" stroke="#D6E5FF">
                            <path d="M13.5,7.5 L5.5,7.5" id="Line"></path>
                            <path d="M13.5,0.5 L13.5,6.58276272" id="Line"></path>
                            <path d="M9.5,3.5 L1.5,3.5" id="Line-Copy-87"></path>
                            <path d="M9.5,0.5 L9.5,2.58276272" id="Line-Copy-86"></path>
                        </g>
                        <g id="Group-Copy-6" transform="translate(8.500000, 5.000000) scale(-1, 1) translate(-8.500000, -5.000000) translate(1.000000, 0.000000)" stroke="#D6E5FF">
                            <path d="M13.5,7.5 L5.5,7.5" id="Line"></path>
                            <path d="M13.5,0.5 L13.5,6.58276272" id="Line"></path>
                            <path d="M9.5,3.5 L1.5,3.5" id="Line-Copy-87"></path>
                            <path d="M9.5,0.5 L9.5,2.58276272" id="Line-Copy-86"></path>
                        </g>
                    </g>
                </g>
                <rect id="Rectangle-220-Copy" stroke="#3480FF" fill="#F0F6FB" sketch:type="MSShapeGroup" x="22" y="190" width="14" height="21"></rect>
                <g id="Group" transform="translate(51.000000, 190.000000)" stroke="#3480FF" fill="#F0F6FB" sketch:type="MSShapeGroup">
                    <rect id="Rectangle-220-Copy" x="0" y="0" width="14" height="21"></rect>
                    <rect id="Rectangle-220-Copy-2" x="20" y="0" width="14" height="21"></rect>
                    <rect id="Rectangle-220-Copy-3" x="40" y="0" width="14" height="21"></rect>
                    <rect id="Rectangle-220-Copy-4" x="60" y="0" width="14" height="21"></rect>
                    <rect id="Rectangle-220-Copy-5" x="80" y="0" width="14" height="21"></rect>
                    <rect id="Rectangle-220-Copy-6" x="100" y="0" width="14" height="21"></rect>
                    <rect id="Rectangle-220-Copy-7" x="120" y="0" width="14" height="21"></rect>
                    <rect id="Rectangle-220-Copy-8" x="140" y="0" width="14" height="21"></rect>
                    <rect id="Rectangle-220-Copy-9" x="160" y="0" width="14" height="21"></rect>
                    <rect id="Rectangle-220-Copy-11" x="180" y="0" width="14" height="21"></rect>
                    <rect id="Rectangle-220-Copy-12" x="209" y="0" width="14" height="21"></rect>
                </g>
            </g>
        </g>
    </g>
</svg>