<?xml version="1.0" encoding="UTF-8" standalone="no"?>
<svg width="150px" height="123px" viewBox="0 0 150 123" version="1.1" xmlns="http://www.w3.org/2000/svg" xmlns:xlink="http://www.w3.org/1999/xlink" xmlns:sketch="http://www.bohemiancoding.com/sketch/ns">
    <!-- Generator: Sketch 3.2.2 (9983) - http://www.bohemiancoding.com/sketch -->
    <title>devices</title>
    <desc>Created with Sketch.</desc>
    <defs></defs>
    <g id="Page-1" stroke="none" stroke-width="1" fill="none" fill-rule="evenodd" sketch:type="MSPage">
        <g id="wallet" sketch:type="MSLayerGroup" transform="translate(1.000000, 6.000000)" stroke="#3480FF">
            <g id="Welcome" sketch:type="MSShapeGroup">
                <g id="Icons2">
                    <g id="Koshelek">
                        <rect id="Rectangle-203" fill="#F0F6FB" x="0" y="0" width="140.362319" height="101.300971" rx="5"></rect>
                        <path d="M0.00230650851,9.06366423 C0.00230650851,9.06366423 142.521134,9.06366423 142.521134,9.06366423 C145.506029,9.07427907 147.92029,11.5016744 147.92029,14.508383 L147.92029,105.574501 C147.92029,108.570922 145.505218,111 142.521141,111 L5.3097708,111 C2.32790336,111 0.00232744602,108.564481 0.00230650751,105.5745 L0.00230650851,9.06366423 Z" id="Rectangle-203" fill="#FFFFFF"></path>
                        <path d="M140.899301,44.184466 L110.136181,44.184466 C107.146423,44.184466 104.731884,46.5990524 104.731884,49.5775956 L104.731884,71.1214335 C104.731884,74.1109641 107.15147,76.5145631 110.136181,76.5145631 L140.899301,76.5145631 L147.92029,76.5145631 L147.92029,44.184466 L140.899301,44.184466 L140.899301,44.184466 Z" id="Rectangle-205" fill="#FFFFFF"></path>
                        <ellipse id="Oval-701" fill="#F0F6FB" cx="120.927536" cy="60.3495146" rx="5.39855072" ry="5.38834951"></ellipse>
                    </g>
                </g>
            </g>
        </g>
    </g>
</svg>